<svg xmlns="http://www.w3.org/2000/svg" width="32" height="32" viewBox="0 0 32 32"><g transform="translate(0 -1020.362)"><circle cx="16" cy="1036.362" r="16" fill="#1d67b1"/><path fill="#fff" d="M 3,2 C 2.4166667,2 1.889343,2.1536844 1.5214844,2.5214844 1.1536258,2.8892844 1,3.4169 1,4 L 1,9 C 1,9.5834 1.1555227,10.111109 1.5253906,10.474609 1.8952586,10.838209 2.419521,10.984375 3,10.984375 l 1.7402344,0.03125 a 0.50005,0.50005 0 0 0 0.00977,0 l 3.0234375,0 3.3457031,3.816406 a 0.50005,0.50005 0 0 0 0.875,-0.330078 l 0.0078,-3.498047 L 13,10.984375 c 0.5805,0 1.104742,-0.146166 1.474609,-0.509766 C 14.844477,10.111109 15,9.5834 15,9 l 0,-5 c 0,-0.5833 -0.155608,-1.1076031 -0.523438,-1.4707031 -0.367827,-0.363 -0.886135,-0.5123438 -1.46289,-0.5273438 a 0.50005,0.50005 0 0 0 -0.01367,0 l -5,0 -5,0 L 3,2 Z m 0,1 5,0 4.986328,0 c 0.423245,0.011 0.654937,0.1117875 0.78711,0.2421875 C 13.905608,3.3726875 14,3.5834 14,4 l 0,5 C 14,9.4167 13.90552,9.6338188 13.775391,9.7617188 13.645258,9.8897187 13.4195,9.984375 13,9.984375 a 0.50005,0.50005 0 0 0 -0.01172,0 l -1.498047,0.03125 a 0.50005,0.50005 0 0 0 -0.488281,0.5 l -0.0059,2.660156 L 8.375,10.1875 A 0.50005,0.50005 0 0 0 8,10.017578 l -3.2460938,0 -1.7441406,-0.033203 a 0.50005,0.50005 0 0 0 -0.00977,0 C 2.5805246,9.984375 2.3547445,9.889419 2.224605,9.7617188 2.0944742,9.6336188 2,9.4167 2,9 L 2,4 C 2,3.5836 2.096359,3.3607156 2.2285156,3.2285156 2.360672,3.0964156 2.5833333,3 3,3 Z" color="#000" font-family="sans-serif" font-weight="400" overflow="visible" transform="translate(8 1029.362)" style="line-height:normal;text-indent:0;text-align:start;text-decoration-line:none;text-decoration-style:solid;text-decoration-color:#000;text-transform:none;block-progression:tb;isolation:auto;mix-blend-mode:normal"/></g></svg>